<?xml version="1.0" standalone="no"?>
<!DOCTYPE svg PUBLIC "-//W3C//DTD SVG 20010904//EN"
 "http://www.w3.org/TR/2001/REC-SVG-20010904/DTD/svg10.dtd">
<svg version="1.0" xmlns="http://www.w3.org/2000/svg"
 width="1024.000000pt" height="1024.000000pt" viewBox="0 0 1024.000000 1024.000000"
 preserveAspectRatio="xMidYMid meet">

<g transform="translate(0.000000,1024.000000) scale(0.100000,-0.100000)"
fill="#000000" stroke="none">
<path d="M0 5120 l0 -5120 5120 0 5120 0 0 5120 0 5120 -5120 0 -5120 0 0
-5120z m6960 2736 c27 -83 82 -116 238 -140 l77 -12 -65 -8 c-196 -21 -249
-70 -274 -249 l-12 -92 -8 74 c-4 41 -16 98 -27 126 -34 91 -85 121 -238 139
-113 13 -113 14 38 34 154 21 202 74 224 243 l12 94 11 -86 c7 -48 17 -103 24
-123z m-1435 129 c381 -57 714 -204 1021 -451 197 -159 291 -293 456 -654 41
-89 41 -93 9 -124 l-28 -27 -23 58 c-99 249 -323 529 -571 713 -235 174 -545
313 -824 369 -224 45 -516 51 -735 16 -224 -37 -513 -130 -682 -219 -33 -18
-50 -2 -22 19 39 29 243 135 325 169 143 59 413 126 554 139 117 11 428 6 520
-8z m-1584 -291 l30 -52 -82 -46 c-44 -25 -85 -43 -90 -40 -14 8 -129 182
-129 194 0 5 4 10 8 10 5 0 42 24 83 53 l74 53 38 -60 c21 -32 52 -83 68 -112z
m925 71 c-10 -8 -62 -29 -115 -46 -115 -38 -151 -55 -151 -72 0 -7 18 -31 40
-52 22 -21 40 -45 40 -52 0 -6 16 -24 36 -39 30 -23 33 -29 21 -41 -11 -11
-19 -12 -40 -2 -30 14 -47 5 -29 -13 20 -20 13 -42 -17 -59 -28 -16 -30 -16
-87 17 -33 18 -69 34 -82 34 -13 0 -20 4 -17 10 3 6 16 10 28 10 33 0 67 28
67 54 0 31 -29 56 -74 63 -33 5 -36 4 -36 -20 0 -24 -40 -68 -72 -80 -10 -3
-11 -9 0 -26 6 -11 12 -23 12 -26 0 -3 -28 -5 -62 -3 -57 2 -68 -2 -118 -34
-65 -41 -86 -64 -95 -99 -6 -24 -1 -29 57 -61 56 -31 63 -38 66 -69 7 -68 43
-79 69 -21 10 20 32 54 50 75 18 20 33 46 33 57 0 23 19 69 38 93 19 22 89 23
120 1 13 -9 22 -26 22 -40 0 -34 26 -41 60 -15 l29 21 26 -37 c14 -21 25 -43
25 -50 0 -7 18 -27 41 -45 38 -30 40 -35 35 -70 -5 -32 -2 -41 19 -60 28 -24
33 -59 11 -77 -11 -9 -25 -9 -54 -2 -57 16 -65 30 -40 69 11 18 24 32 29 32 5
0 9 5 9 10 0 7 -8 7 -22 -1 -12 -6 -51 -11 -87 -11 -66 0 -121 -13 -121 -29 0
-5 3 -8 8 -8 23 4 32 -4 32 -29 0 -36 16 -52 55 -52 l30 -1 -23 -19 c-33 -27
-100 -46 -113 -33 -14 14 -87 -2 -111 -24 -9 -8 -18 -29 -20 -46 -3 -25 -9
-32 -43 -42 -75 -22 -106 -44 -126 -91 -11 -24 -36 -56 -56 -71 -85 -65 -84
-64 -77 -151 9 -106 -7 -115 -46 -28 -31 71 -51 83 -114 73 -18 -3 -37 -2 -42
1 -17 13 -114 134 -114 143 0 12 17 12 25 -1 14 -23 50 -7 104 48 84 84 97
149 49 244 -25 52 -25 75 2 136 28 65 23 117 -17 173 -51 73 -51 68 -18 92 52
38 228 148 280 175 228 116 541 224 670 230 19 1 20 1 1 -13z m452 4 c55 -6
123 -16 152 -22 49 -11 53 -14 55 -45 2 -27 -6 -42 -51 -89 -47 -50 -51 -58
-37 -69 14 -10 9 -13 -36 -23 -28 -6 -61 -11 -73 -11 -12 0 -41 -12 -65 -26
-24 -14 -66 -32 -93 -40 -31 -9 -54 -23 -61 -37 -7 -12 -23 -39 -36 -60 l-23
-37 -38 15 c-44 19 -66 45 -87 104 -14 41 -14 46 5 76 21 34 25 50 11 41 -4
-3 -6 17 -4 44 3 47 2 51 -29 70 -18 11 -46 20 -63 20 -16 1 -43 7 -59 13 -29
13 -29 13 65 44 52 18 105 34 119 36 52 9 253 7 348 -4z m-1551 -234 c-6 -21
-111 -65 -142 -60 -57 10 -116 95 -100 145 3 10 32 42 63 70 l56 50 63 -97
c34 -54 61 -102 60 -108z m-376 114 c23 -24 149 -221 149 -233 0 -1 -19 -3
-42 -5 -81 -4 -173 -61 -218 -134 l-18 -28 -45 68 c-63 96 -97 167 -97 204 0
40 46 86 131 128 79 39 103 39 140 0z m2787 -165 c279 -178 516 -461 644 -769
l37 -90 -22 -18 c-41 -32 -152 -87 -166 -82 -7 3 -19 -1 -25 -9 -31 -40 -561
-283 -865 -397 -204 -77 -199 -77 -232 -4 -23 49 -24 85 -4 111 18 24 18 52 1
84 -24 41 15 100 114 172 20 14 47 47 60 72 37 73 81 106 138 106 27 0 88 9
138 20 104 23 167 25 183 7 6 -8 14 -28 17 -45 8 -37 20 -49 102 -93 l62 -34
23 29 23 28 81 -27 c75 -26 86 -27 127 -15 48 13 66 41 66 100 0 26 -2 27 -65
32 -75 6 -91 17 -117 76 -15 32 -24 42 -43 42 -31 0 -39 -14 -23 -39 10 -17
10 -23 -3 -36 -14 -15 -20 -9 -67 58 -35 50 -68 85 -102 107 -28 18 -53 30
-56 27 -3 -3 23 -32 57 -65 l62 -61 -31 -30 c-17 -17 -39 -31 -48 -31 -16 0
-15 2 4 16 12 8 22 19 22 23 0 4 -32 36 -71 71 l-70 63 -57 -13 c-43 -10 -68
-24 -99 -54 -24 -22 -43 -48 -43 -57 0 -22 -18 -36 -68 -53 -37 -13 -46 -13
-77 -1 -44 19 -55 41 -55 109 0 63 1 64 100 68 48 3 55 6 58 25 4 27 -17 59
-54 84 -20 13 -24 19 -14 23 86 26 126 45 153 69 18 16 47 36 65 43 30 14 32
17 26 49 -8 45 6 45 40 0 27 -34 28 -35 101 -35 78 0 105 13 105 49 0 10 7 24
15 31 16 14 20 40 6 40 -5 0 -23 13 -40 30 -29 26 -31 33 -25 66 6 33 5 35
-12 26 -11 -6 -27 -19 -37 -30 -16 -17 -16 -22 -2 -56 14 -32 14 -40 1 -64
-32 -63 -68 -65 -112 -6 -20 26 -33 34 -54 32 -31 -2 -58 16 -70 47 -10 27 3
49 44 73 24 14 43 39 63 81 15 33 29 61 31 61 2 0 29 -16 60 -36z m1708 -28
c88 -32 171 -91 206 -145 23 -37 28 -56 28 -107 0 -52 -6 -74 -42 -145 -35
-71 -60 -101 -167 -209 -143 -143 -251 -226 -489 -379 -307 -198 -580 -340
-1022 -534 -295 -129 -818 -326 -1065 -402 -60 -18 -184 -56 -275 -84 -250
-76 -670 -174 -945 -220 -282 -47 -505 -65 -825 -65 -241 0 -332 3 -435 18
-241 33 -422 92 -550 177 -86 58 -135 111 -172 188 -54 110 -30 273 64 433 73
125 244 291 408 397 l50 32 -45 -37 c-25 -21 -90 -83 -146 -139 -85 -85 -108
-116 -145 -190 -41 -82 -44 -95 -47 -179 -5 -117 18 -183 89 -260 188 -205
595 -300 1187 -275 405 17 705 64 1205 190 187 46 658 187 757 225 19 7 94 34
165 60 676 241 1414 600 1810 880 344 243 515 434 515 575 0 95 -38 144 -142
185 -37 15 -68 29 -68 31 0 8 35 1 96 -21z m-2288 -22 c28 -6 28 -21 0 -30
-57 -18 -170 8 -153 35 5 9 103 5 153 -5z m-2463 -101 c13 -21 29 -53 36 -71
10 -29 8 -36 -15 -66 -14 -19 -43 -48 -65 -65 l-40 -32 -40 59 c-22 33 -54 83
-70 111 l-31 52 28 10 c80 32 100 38 134 38 33 1 41 -4 63 -36z m462 16 c29
-11 83 -57 83 -71 0 -4 -12 -3 -26 2 -14 6 -45 10 -68 10 -129 0 -239 -84
-266 -205 l-7 -30 -12 28 c-19 49 -13 99 18 149 34 54 77 86 146 110 58 20 93
22 132 7z m3622 -140 c16 -15 48 -30 72 -35 l44 -8 -45 -8 c-52 -9 -94 -37
-98 -64 -7 -45 -14 -49 -25 -15 -15 43 -49 69 -107 80 -28 5 -35 9 -20 10 14
1 44 10 67 20 34 16 44 27 52 58 6 21 11 47 12 58 1 11 5 0 10 -25 6 -30 18
-54 38 -71z m-4246 -41 l45 -76 -86 -55 -85 -55 -69 109 c-38 59 -69 112 -70
116 0 4 39 29 88 54 l89 45 21 -31 c12 -17 42 -65 67 -107z m2850 88 c9 -7 17
-23 17 -35 0 -12 21 -44 47 -72 l48 -51 -24 -19 c-25 -20 -111 -27 -111 -9 0
6 7 27 15 47 15 37 15 37 -20 73 -38 39 -41 50 -23 68 15 15 29 15 51 -2z
m-2172 -67 c19 -7 40 -17 48 -25 11 -10 7 -12 -26 -7 -95 13 -224 -61 -239
-136 -9 -41 -24 -22 -24 30 0 45 44 109 91 132 40 19 102 22 150 6z m2116 -10
c13 -13 5 -55 -13 -69 -23 -20 -59 -8 -62 22 -5 39 49 73 75 47z m-2061 -112
c-5 -23 -113 -100 -167 -120 -22 -9 -32 -8 -41 2 -21 20 67 94 134 113 37 10
56 21 63 37 8 17 11 19 13 6 2 -9 1 -26 -2 -38z m125 -109 c16 -60 2 -107 -45
-153 -41 -40 -121 -75 -172 -75 -37 0 -89 25 -108 51 -24 36 -19 40 19 18 44
-27 128 -28 179 -4 21 10 50 36 64 58 24 36 27 50 25 111 -2 64 0 69 13 51 8
-11 19 -36 25 -57z m-81 -9 c0 -82 -142 -152 -191 -93 -9 11 -7 14 12 14 28 0
116 49 143 79 24 27 36 27 36 0z m-218 -273 c46 -35 124 -52 177 -39 l40 11
56 -59 c30 -33 55 -62 55 -64 0 -3 -10 -3 -22 0 -14 3 -41 -4 -68 -17 -37 -19
-48 -31 -63 -73 -26 -70 -27 -137 -3 -164 29 -32 72 -27 113 14 21 21 45 35
60 35 29 0 28 -4 -8 -88 -26 -58 -20 -72 29 -72 48 0 59 -15 55 -72 -5 -73 3
-82 79 -83 57 -1 67 2 100 30 21 17 53 36 73 42 l35 11 1 -36 c0 -31 2 -34 9
-16 13 33 24 36 71 14 24 -11 61 -20 81 -20 52 0 79 -13 137 -64 30 -27 61
-46 75 -46 66 0 110 -37 111 -92 0 -25 -6 -28 -85 -52 -138 -41 -365 -86 -500
-99 l-125 -13 0 56 c0 47 5 62 28 89 34 41 42 72 31 124 l-9 42 -50 1 c-61 0
-99 23 -125 74 -13 25 -32 42 -62 55 -24 11 -61 31 -83 45 -22 15 -66 38 -97
53 -117 52 -180 141 -213 297 -15 72 -15 78 7 166 l23 91 17 -27 c9 -15 32
-39 50 -54z m-119 -255 c-10 -16 -17 34 -12 89 2 26 4 19 8 -25 3 -33 5 -62 4
-64z m4257 46 c0 -2 -12 -14 -27 -28 l-28 -24 24 28 c23 25 31 32 31 24z m-60
-51 c0 -9 -148 -125 -153 -120 -3 3 -21 -5 -39 -19 -18 -13 -44 -30 -58 -36
l-25 -12 27 23 c14 13 61 44 105 71 43 26 92 58 108 72 31 25 35 28 35 21z
m-3462 -105 c52 -33 65 -51 38 -51 -8 0 -47 16 -87 35 -46 22 -89 35 -114 35
-30 0 -36 3 -25 11 8 5 42 8 76 7 48 -3 71 -11 112 -37z m171 -65 c35 -13 59
-26 54 -29 -16 -10 -183 5 -183 16 0 13 31 36 50 37 8 0 44 -11 79 -24z
m-1376 -238 c11 -92 59 -132 173 -146 75 -9 69 -12 -50 -27 -38 -5 -58 -15
-82 -39 -29 -29 -32 -40 -40 -116 l-8 -85 -7 67 c-10 92 -33 136 -83 159 -23
10 -54 19 -71 19 -16 1 -39 5 -50 9 -15 6 -6 10 35 15 112 15 160 62 160 159
0 63 15 53 23 -15z m3982 -15 c-11 -63 -32 -96 -105 -167 -98 -94 -105 -110
-102 -230 2 -58 -2 -111 -9 -128 -6 -15 -33 -41 -60 -59 -59 -38 -99 -83 -99
-112 0 -28 -23 -65 -93 -150 -115 -140 -187 -166 -237 -85 -11 18 -22 53 -25
78 -3 25 -17 81 -31 125 l-26 80 22 58 c19 51 20 64 10 110 -6 28 -22 73 -35
99 l-24 46 90 36 c169 68 473 206 594 270 66 35 124 65 129 65 4 1 5 -16 1
-36z m276 -163 c-9 -22 -10 -20 -6 14 3 29 1 36 -8 27 -23 -23 -29 -10 -6 15
l24 26 3 -29 c2 -16 -2 -40 -7 -53z m-400 -422 c-25 -76 -76 -167 -97 -175
-29 -11 -33 19 -8 65 13 25 24 57 24 72 0 20 11 34 45 58 25 17 45 37 45 43 0
7 3 10 6 6 3 -3 -3 -34 -15 -69z m-1676 -98 c-3 -5 -12 -10 -18 -10 -7 0 -6 4
3 10 19 12 23 12 15 0z m242 -1116 c-3 -3 -12 -4 -19 -1 -8 3 -5 6 6 6 11 1
17 -2 13 -5z m-339 -11 c-10 -2 -28 -2 -40 0 -13 2 -5 4 17 4 22 1 32 -1 23
-4z m271 3 c-2 -2 -42 -6 -89 -9 -48 -3 -76 -1 -65 3 19 8 163 14 154 6z m2
-216 c227 -23 411 -72 624 -167 113 -50 267 -143 262 -158 -2 -5 -32 -30 -66
-54 l-63 -44 -36 22 c-163 97 -333 168 -502 210 -444 110 -858 43 -1297 -210
l-41 -24 -71 49 c-39 26 -71 49 -71 51 0 9 164 103 262 150 299 144 668 208
999 175z m70 -316 c109 -20 176 -40 263 -76 72 -30 246 -128 246 -138 0 -3
-28 -25 -62 -49 l-61 -45 -41 23 c-211 119 -364 160 -594 161 -198 0 -445 -68
-574 -159 l-55 -39 -68 50 -68 50 24 19 c49 38 237 128 332 158 89 28 211 54
312 65 70 7 259 -3 346 -20z m4 -328 c88 -27 215 -83 215 -95 -1 -10 -112 -91
-125 -91 -7 0 -37 11 -66 24 -89 39 -157 51 -279 51 -123 -1 -188 -15 -288
-62 l-53 -25 -37 26 c-20 15 -50 37 -66 51 l-30 24 75 36 c152 73 257 95 434
91 107 -3 146 -8 220 -30z m-112 -283 l58 -16 -22 -23 c-12 -13 -55 -46 -96
-73 -87 -59 -85 -60 -204 28 l-80 59 43 16 c104 39 184 41 301 9z"/>
<path d="M4332 7563 c4 -36 41 -45 58 -13 14 26 14 26 -28 35 -32 7 -33 6 -30
-22z"/>
<path d="M6524 6875 c-16 -39 -19 -91 -5 -99 5 -3 26 1 46 10 27 11 52 13 90
9 77 -10 84 0 35 50 -29 29 -40 47 -34 57 5 8 -2 7 -19 -4 -32 -22 -51 -23
-67 -3 -19 23 -30 18 -46 -20z"/>
</g>
</svg>
